<?xml version="1.0" encoding="utf-8"?>
<!-- Generator: Adobe Illustrator 26.3.1, SVG Export Plug-In . SVG Version: 6.00 Build 0)  -->
<svg version="1.1" id="Layer_1" xmlns="http://www.w3.org/2000/svg" xmlns:xlink="http://www.w3.org/1999/xlink" x="0px" y="0px"
	 viewBox="0 0 19.4 10.2" style="enable-background:new 0 0 19.4 10.2;" xml:space="preserve">
<style type="text/css">
	.st0{fill:#FFFFFF;}
</style>
<g>
	<path class="st0" d="M2.9,4.3h1.4V0.9h2.1v8.6H4.2V5.9H2.9v3.7H0.8V0.9h2.1V4.3z"/>
	<path class="st0" d="M18.3,9.5h-2.1V0.9h2.1V9.5z"/>
	<path class="st0" d="M10.3,0.9L11,4.4c0.1,0.7,0.2,1.9,0.3,2.7h0c0.1-0.8,0.2-2.1,0.3-2.7l0.7-3.5h2.9v8.6h-2v-3
		c0-0.8,0.1-3,0.1-3.8h0L12,9.5h-1.4L9.3,2.8h0c0,0.6,0.1,2.6,0.1,3.7v3h-2V0.9H10.3z"/>
</g>
</svg>
