<?xml version="1.0" encoding="utf-8"?>
<!-- Generator: Adobe Illustrator 26.3.1, SVG Export Plug-In . SVG Version: 6.00 Build 0)  -->
<svg version="1.1" id="Layer_1" xmlns="http://www.w3.org/2000/svg" xmlns:xlink="http://www.w3.org/1999/xlink" x="0px" y="0px"
	 viewBox="0 0 23.7 21" style="enable-background:new 0 0 23.7 21;" xml:space="preserve">
<style type="text/css">
	.st0{fill:#FFFFFF;}
</style>
<g>
	<g>
		<g>
			<path class="st0" d="M5.6,17.6c0.1-0.1,0.2-0.2,0.4-0.2c0.2,0,0.3,0,0.4,0.1c0.1,0.1,0.2,0.2,0.2,0.4h0.5
				c-0.1-0.3-0.2-0.5-0.4-0.7C6.5,17.1,6.3,17,6,17c-0.3,0-0.6,0.1-0.7,0.3c-0.2,0.2-0.3,0.3-0.3,0.5c0,0.2,0,0.4,0,0.8
				c0,0.4,0,0.6,0,0.8c0,0.2,0.1,0.3,0.3,0.5C5.4,20,5.7,20.1,6,20.1c0.3,0,0.5-0.1,0.7-0.2c0.2-0.2,0.3-0.4,0.4-0.7H6.6
				c0,0.2-0.1,0.3-0.2,0.4c-0.1,0.1-0.2,0.1-0.4,0.1c-0.2,0-0.3-0.1-0.4-0.2c-0.1-0.1-0.2-0.2-0.2-0.3c0-0.1,0-0.3,0-0.6
				c0-0.3,0-0.5,0-0.6C5.4,17.8,5.5,17.7,5.6,17.6z"/>
			<path class="st0" d="M8.9,19.2c0,0.2,0,0.3-0.1,0.4c-0.1,0.1-0.2,0.1-0.3,0.1c-0.1,0-0.2,0-0.3-0.1C8,19.5,8,19.4,8,19.2v-1.3
				H7.5v1.4c0,0.1,0,0.2,0,0.3c0,0.1,0.1,0.2,0.2,0.3C7.8,20,7.9,20,8,20.1c0.1,0,0.2,0,0.3,0c0.2,0,0.4-0.1,0.6-0.2v0.2h0.4v-2.2
				H8.9V19.2z"/>
			<path class="st0" d="M10.9,17.9c-0.1,0-0.2,0-0.3,0.1c-0.1,0-0.2,0.1-0.2,0.2v-0.2H9.9v2.2h0.4v-1.3c0-0.1,0-0.3,0.1-0.4
				c0.1-0.1,0.2-0.1,0.3-0.1c0.1,0,0.1,0,0.2,0c0.1,0,0.1,0.1,0.1,0.1l0.3-0.3c-0.1-0.1-0.2-0.1-0.2-0.2
				C11.1,17.9,11,17.9,10.9,17.9z"/>
			<polygon class="st0" points="12.4,19.4 11.9,17.9 11.4,17.9 12.2,20.1 12.6,20.1 13.3,17.9 12.9,17.9 			"/>
			<path class="st0" d="M14.5,17.9c-0.3,0-0.5,0.1-0.7,0.3c-0.2,0.2-0.2,0.5-0.2,0.8c0,0.4,0.1,0.7,0.3,0.8c0.2,0.2,0.4,0.3,0.7,0.3
				c0.2,0,0.3,0,0.5-0.1c0.1-0.1,0.2-0.1,0.4-0.3l-0.3-0.3c-0.1,0.1-0.2,0.1-0.2,0.2c-0.1,0-0.2,0-0.3,0c-0.2,0-0.3-0.1-0.4-0.2
				C14,19.5,14,19.3,14,19.1h1.4v-0.2c0-0.3-0.1-0.6-0.2-0.7C15,18,14.8,17.9,14.5,17.9z M14,18.8c0-0.1,0-0.2,0.1-0.3
				c0-0.1,0.1-0.2,0.2-0.2c0.1,0,0.2-0.1,0.3-0.1c0.1,0,0.2,0,0.3,0.1c0.1,0.1,0.1,0.1,0.2,0.2c0,0.1,0.1,0.2,0.1,0.3H14z"/>
			<path class="st0" d="M17.1,18.1C17.1,18.1,17,18,16.9,18c-0.1,0-0.2-0.1-0.3-0.1c-0.2,0-0.4,0.1-0.5,0.2
				c-0.1,0.1-0.2,0.2-0.2,0.4c0,0.1-0.1,0.3-0.1,0.6c0,0.2,0,0.4,0,0.5c0,0.2,0.1,0.3,0.2,0.4s0.2,0.1,0.3,0.2c0.1,0,0.2,0,0.3,0
				c0.1,0,0.2,0,0.3-0.1c0.1,0,0.2-0.1,0.2-0.2v0.2h0.4v-3h-0.4V18.1z M17,19.5c-0.1,0.1-0.2,0.2-0.4,0.2s-0.3-0.1-0.4-0.2
				c-0.1-0.1-0.1-0.3-0.1-0.5c0-0.2,0-0.4,0.1-0.5c0.1-0.1,0.2-0.2,0.4-0.2s0.3,0.1,0.4,0.2c0.1,0.1,0.1,0.3,0.1,0.5
				C17.1,19.2,17.1,19.4,17,19.5z"/>
			<path class="st0" d="M21.3,5.3l0.2-4c-1.2,0.5-4.9,2.2-10.2,2c-5-0.1-8.9-1.6-11-2.6v16.5c4-1.7,7.5-2.5,12.3-2.4
				c4.1,0.1,8,1.4,9,1.9l-0.2-3.8L21.1,16c0,0-4.7-2.3-10.9-2.2c-4.1,0.1-7.1,1-8.8,1.7V2.3c0,0,4.2,1.8,9.8,1.8c5,0,8.8-1.7,10-2.4
				L21.3,5.3z"/>
		</g>
	</g>
	<g>
		<path class="st0" d="M4.2,12V7.3L3,8.3V7.1l1.2-1h1.1V12H4.2z"/>
		<path class="st0" d="M9.2,11.6c-0.3,0.3-0.7,0.5-1.3,0.5s-1.1-0.2-1.3-0.5c-0.4-0.4-0.4-0.8-0.5-1.2h1.1c0.1,0.5,0.3,0.7,0.7,0.7
			c0.2,0,0.4-0.1,0.5-0.2c0.2-0.2,0.2-0.5,0.2-0.9C8.6,9.3,8.5,9,7.9,9C7.5,9,7.3,9.2,7.2,9.4h-1V6.1h3.4v1H7.2v1.3
			C7.4,8.2,7.7,8,8.1,8C8.6,8,9,8.2,9.2,8.4c0.5,0.5,0.5,1,0.5,1.6C9.7,10.7,9.6,11.1,9.2,11.6z"/>
		<path class="st0" d="M12.1,12.1c-1,0-1.8-0.6-1.8-1.8V7.8c0-1.1,0.8-1.8,1.8-1.8s1.8,0.6,1.8,1.8v2.5
			C13.9,11.4,13.1,12.1,12.1,12.1z M12.8,7.8c0-0.5-0.3-0.8-0.7-0.8s-0.7,0.3-0.7,0.8v2.5c0,0.5,0.3,0.8,0.7,0.8s0.7-0.3,0.7-0.8
			V7.8z"/>
		<path class="st0" d="M16.3,12.1c-1,0-1.8-0.6-1.8-1.8V7.8c0-1.1,0.8-1.8,1.8-1.8S18,6.7,18,7.8v2.5C18,11.4,17.2,12.1,16.3,12.1z
			 M17,7.8C17,7.3,16.7,7,16.3,7c-0.4,0-0.7,0.3-0.7,0.8v2.5c0,0.5,0.3,0.8,0.7,0.8c0.4,0,0.7-0.3,0.7-0.8V7.8z"/>
		<path class="st0" d="M21.9,12l-1.2-2.4h-0.8V12h-1.2V6.1h2.3c1.2,0,1.9,0.8,1.9,1.8c0,0.8-0.5,1.3-1.1,1.6l1.3,2.5H21.9z M21,7.1
			h-1.1v1.6H21c0.5,0,0.8-0.3,0.8-0.8C21.8,7.5,21.5,7.1,21,7.1z"/>
	</g>
</g>
</svg>
