<?xml version="1.0" encoding="utf-8"?>
<!-- Generator: Adobe Illustrator 26.3.1, SVG Export Plug-In . SVG Version: 6.00 Build 0)  -->
<svg version="1.1" xmlns="http://www.w3.org/2000/svg" xmlns:xlink="http://www.w3.org/1999/xlink" x="0px" y="0px"
	 viewBox="0 0 296.4 250.1" style="enable-background:new 0 0 296.4 250.1;" xml:space="preserve">
<style type="text/css">
	.st0{display:none;}
	.st1{display:inline;}
	.st2{opacity:0.8;}
	.st3{opacity:0.8;fill:#6751A2;}
	.st4{opacity:0.8;fill:#FFFFFF;}
	.st5{opacity:0.4;stroke:#FFFFFF;stroke-miterlimit:10;}
	.st6{opacity:0.4;}
	.st7{stroke:#FFFFFF;stroke-miterlimit:10;}
	.st8{fill:none;stroke:#FFFFFF;stroke-miterlimit:10;}
</style>
<g id="Layer_3" class="st0">
	<rect x="-0.2" y="0" class="st1" width="297.5" height="250.2"/>
</g>
<g id="Layer_1">
	<line class="st2" x1="148.3" y1="84.4" x2="148.3" y2="218.4"/>
	<path class="st3" d="M283.1,8.2H13.3c-6.2,0-11.2,5-11.2,11.2v52.5C2.1,78,7.2,83,13.3,83h269.8c6.2,0,11.2-5,11.2-11.2V19.4
		C294.3,13.2,289.3,8.2,283.1,8.2z"/>
	<circle class="st3" cx="148.3" cy="230.6" r="11.4"/>
	<path class="st4" d="M283.1,6.6H13.3c-7.1,0-12.8,5.7-12.8,12.8v52.5c0,7.1,5.7,12.8,12.8,12.8h134.1v133
		c-6.8,0.4-12.2,6.1-12.2,13c0,7.2,5.8,13,13,13s13-5.8,13-13c0-6.9-5.4-12.6-12.2-13v-133h134c7.1,0,12.8-5.7,12.8-12.8V19.4
		C295.9,12.3,290.2,6.6,283.1,6.6z M159.7,230.6c0,6.3-5.1,11.4-11.4,11.4c-6.3,0-11.4-5.1-11.4-11.4s5.1-11.4,11.4-11.4
		C154.6,219.2,159.7,224.3,159.7,230.6z M294.3,71.8c0,6.2-5,11.2-11.2,11.2H13.3C7.2,83,2.1,78,2.1,71.8V19.4
		c0-6.2,5-11.2,11.2-11.2h269.8c6.2,0,11.2,5,11.2,11.2V71.8z"/>
</g>
<g id="Layer_2" class="st0">
	<g class="st1">
		<path class="st5" d="M283.1,83.8H13.3c-6.6,0-12-5.4-12-12V19.4c0-6.6,5.4-12,12-12h269.8c6.6,0,12,5.4,12,12v52.5
			C295.1,78.4,289.7,83.8,283.1,83.8z"/>
		<g class="st6">
			<line class="st7" x1="148.3" y1="84.3" x2="148.3" y2="218.9"/>
			<circle class="st8" cx="148.3" cy="230.6" r="12.2"/>
		</g>
	</g>
</g>
</svg>
